<!-- Generator: Adobe Illustrator 22.0.0, SVG Export Plug-In  -->
<svg version="1.1"
	 xmlns="http://www.w3.org/2000/svg" xmlns:xlink="http://www.w3.org/1999/xlink" xmlns:a="http://ns.adobe.com/AdobeSVGViewerExtensions/3.0/"
	 x="0px" y="0px" width="292px" height="130.897px" viewBox="0 0 292 130.897" style="enable-background:new 0 0 292 130.897;"
	 xml:space="preserve">
<style type="text/css">
	.st0{fill:none;}
	.st1{fill:#EA4242;}
</style>
<defs>
</defs>
<g>
	<rect class="st0" width="292" height="130.897"/>
	<g>
		<path class="st1" d="M100.74,13.47c2.878-2.446,4.896-4.319,4.896-6.622c0-2.449-2.161-4.175-4.463-4.175
			c-3.311,0-5.328,2.302-8.927,8.35L84.18,24.846h2.738L100.74,13.47z"/>
		<path class="st1" d="M94.835,32.908c-17.133,0-30.667,13.102-30.667,30.955c0,21.311,16.125,31.246,30.667,31.246
			c15.407,0,30.814-10.656,30.814-31.102C125.649,45.722,111.824,32.908,94.835,32.908z M94.835,91.652
			c-17.277,0-19.006-15.692-19.006-27.356c0-15.692,3.887-27.933,19.006-27.933c15.407,0,19.15,12.529,19.15,28.077
			C113.985,76.536,111.968,91.652,94.835,91.652z"/>
		<path class="st1" d="M179.803,38.38c1.582,0,2.158,1.153,3.167,2.734c0.72,1.297,2.014,2.881,4.031,2.881
			c2.59,0,4.175-2.161,4.175-4.607c0-2.449-2.014-5.904-7.054-5.904c-3.314,0-7.489,1.585-12.096,6.766
			c-4.319-4.463-11.373-7.342-18.718-7.342c-12.958,0-23.469,9.215-23.469,21.02c0,6.625,3.314,14.543,13.393,20.447
			c-6.769,1.153-12.817,4.463-12.817,11.52c0,9.932,12.673,11.085,24.046,11.517c10.8,0.432,23.469,1.009,23.469,13.246
			c0,7.486-6.336,14.687-21.74,14.687c-10.511,0-23.181-3.455-23.181-14.254c0-5.04,2.735-8.206,4.463-10.079
			c-0.72-0.288-1.153-0.432-2.161-0.432c-6.477,0-8.638,5.616-8.638,9.647c0,10.223,10.656,17.997,29.085,17.997
			c20.732,0,29.226-9.791,29.226-20.588c0-18.285-18.859-19.294-29.226-19.87c-13.246-0.72-19.582-1.009-19.582-5.472
			c0-5.472,10.8-5.901,14.831-6.045c10.367-0.432,16.269-2.881,20.011-6.625c4.322-4.319,6.48-9.503,6.48-15.263
			c0-2.446-0.288-6.909-3.743-12.237C176.057,39.677,178.074,38.38,179.803,38.38z M153.453,73.078
			c-11.373,0-13.102-11.085-13.102-17.565c0-3.743,0-19.15,12.958-19.15c13.246,0,13.246,14.831,13.246,17.997
			C166.554,56.089,167.131,73.078,153.453,73.078z"/>
		<path class="st1" d="M218.731,32.908c-17.133,0-30.667,13.102-30.667,30.955c0,21.311,16.124,31.246,30.667,31.246
			c15.407,0,30.811-10.656,30.811-31.102C249.542,45.722,235.723,32.908,218.731,32.908z M218.731,91.652
			c-17.277,0-19.006-15.692-19.006-27.356c0-15.692,3.887-27.933,19.006-27.933c15.407,0,19.15,12.529,19.15,28.077
			C237.881,76.536,235.864,91.652,218.731,91.652z"/>
		<path class="st1" d="M272.21,57.674c-6.622-3.025-13.534-6.192-13.534-12.817c0-4.175,3.17-8.782,9.359-8.782
			c9.215,0,13.822,10.223,14.975,15.695h2.591V33.917h-2.591c-0.144,0.288-1.585,3.743-2.734,5.04
			c-3.314-3.887-7.345-6.048-12.529-6.048c-10.22,0-15.404,9.071-15.404,15.983c0,10.509,9.359,15.116,16.269,18.574
			c7.633,3.743,13.966,6.765,13.966,14.251c0,2.593-1.441,10.223-10.656,10.223c-10.22,0-15.548-9.359-16.989-16.269h-2.734v18.862
			h2.734c0.288-1.297,1.585-4.319,3.023-5.904c3.313,3.167,6.625,6.48,14.11,6.48c10.223,0,17.424-7.201,17.424-16.992
			C289.49,65.592,279.843,61.129,272.21,57.674z"/>
		<path class="st1" d="M37.572,89.425h-4.251c-10.224,0-10.224-0.429-10.224-16.557V51.19V33.043V13.986h-1.005
			c-5.472,1.87-12.529,2.878-18.718,3.022v3.17c9.503,0,9.647,3.167,9.647,13.819V51.19v21.678c0,14.975-0.144,16.557-8.642,16.557
			H2.51v3.17h24.344h1.467h1h1.533h28.314l1.726-18.286H58.16C52.4,89.425,48.657,89.425,37.572,89.425z"/>
	</g>
</g>
</svg>